PathFileType	4	(X/Y/Z)	/Users/itak/Documents/Research/Walk-IL/dataset/trc/00157_00007.trc
DataRate	CameraRate	NumFrames	NumMarkers	Units	OrigDataRate	OrigDataStartFrame	OrigNumFrames
100.000000	100.000000	4	54	mm	100.000000	0	611
Frame#	Time	RPSI			LPSI			L3			STRN			T10			C7			CLAV			RBAK			LBAK			LSHO			LUPA			LAEL			LAOL			LWTS			LWPS			LFRA			LIFD			LHPS			LHTS			RSHO			RUPA			RAEL			RAOL			RWTS			RWPS			RFRA			RIFD			RHTS			RHPS			RBHD			LFHD			RFHD			LBHD			LHIP			RHIP			RASI			LASI			LKNE			LTHI			LANK			LTIP			LTOE			LMT1			LMT5			LHEE			RKNE			RTHI			RANK			RTIP			RTOE			RMT1			RMT5			RHEE			*53			
		X1	Y1	Z1	X2	Y2	Z2	X3	Y3	Z3	X4	Y4	Z4	X5	Y5	Z5	X6	Y6	Z6	X7	Y7	Z7	X8	Y8	Z8	X9	Y9	Z9	X10	Y10	Z10	X11	Y11	Z11	X12	Y12	Z12	X13	Y13	Z13	X14	Y14	Z14	X15	Y15	Z15	X16	Y16	Z16	X17	Y17	Z17	X18	Y18	Z18	X19	Y19	Z19	X20	Y20	Z20	X21	Y21	Z21	X22	Y22	Z22	X23	Y23	Z23	X24	Y24	Z24	X25	Y25	Z25	X26	Y26	Z26	X27	Y27	Z27	X28	Y28	Z28	X29	Y29	Z29	X30	Y30	Z30	X31	Y31	Z31	X32	Y32	Z32	X33	Y33	Z33	X34	Y34	Z34	X35	Y35	Z35	X36	Y36	Z36	X37	Y37	Z37	X38	Y38	Z38	X39	Y39	Z39	X40	Y40	Z40	X41	Y41	Z41	X42	Y42	Z42	X43	Y43	Z43	X44	Y44	Z44	X45	Y45	Z45	X46	Y46	Z46	X47	Y47	Z47	X48	Y48	Z48	X49	Y49	Z49	X50	Y50	Z50	X51	Y51	Z51	X52	Y52	Z52	X53	Y53	Z53	X54	Y54	Z54	

1	0	-1322.709838867188	1128.302490234375	-501.0604553222656	-1319.215576171875	1128.447631835938	-635.3692626953125	-1328.095825195312	1159.981079101562	-571.2304077148438	-1110.3984375	1361.813720703125	-572.40234375	-1366.87255859375	1310.429443359375	-577.41455078125	-1332.236694335938	1602.816650390625	-596.7902221679688	-1146.378662109375	1497.250732421875	-580.6803588867188	-1387.655395507812	1420.440185546875	-506.3248596191406	-1336.433227539062	1580.9482421875	-698.474609375	-1248.358520507812	1566.471435546875	-763.7825927734375	-1266.253295898438	1433.580444335938	-833.2787475585938	-1244.603271484375	1212.195190429688	-846.0084228515625	-1314.09716796875	1200.65576171875	-794.2273559570312	-1141.433837890625	960.499267578125	-780.6015625	-1218.386474609375	930.7330932617188	-814.6128540039062	-1223.699462890625	1096.297119140625	-843.143310546875	-1123.803344726562	768.7968139648438	-749.7820434570312	-1186.013549804688	857.117919921875	-808.0299682617188	-1122.634643554688	872.8074951171875	-784.7796630859375	-1283.705322265625	1589.8330078125	-414.3973999023438	-1304.322631835938	1517.900146484375	-349.4392395019531	-1315.667358398438	1222.301635742188	-324.9387817382812	-1316.06591796875	1219.894775390625	-422.0407104492188	-1166.637939453125	982.8064575195312	-324.78125	-1242.9306640625	964.532958984375	-299.3473510742188	-1292.190551757812	1150.011108398438	-306.8764953613281	-1136.281982421875	788.9015502929688	-336.7460632324219	-1136.061889648438	875.3693237304688	-315.6614379882812	-1205.016235351562	865.73046875	-291.4053955078125	-1297.134521484375	1773.923583984375	-514.1837158203125	-1138.466552734375	1843.234375	-649.8923950195312	-1136.020751953125	1847.640625	-520.3486938476562	-1307.43505859375	1773.091796875	-648.857666015625	-1226.783203125	1036.938354492188	-739.4004516601562	-1200.165771484375	1033.57080078125	-379.736328125	-1116.779541015625	1105.103637695312	-431.6082153320312	-1120.40380859375	1100.179077148438	-697.5231323242188	-1214.050659179688	535.3032836914062	-708.5308837890625	-1231.60302734375	681.6770629882812	-736.5134887695312	-1328.006713867188	34.96148300170898	-698.2110595703125	-1316.964111328125	291.0293273925781	-733.1615600585938	-1095.250610351562	36.19325256347656	-642.8536376953125	-1177.293334960938	40.87303161621094	-609.7770385742188	-1203.016845703125	32.45205688476562	-726.1062622070312	-1395.990112304688	36.25505447387695	-635.087646484375	-1224.65185546875	539.2452392578125	-409.7849426269531	-1189.723754882812	817.85888671875	-384.1485900878906	-1324.425048828125	29.20235824584961	-425.6416931152344	-1253.225708007812	408.0755920410156	-398.771484375	-1093.166748046875	40.69922256469727	-483.0644226074219	-1155.427490234375	30.17730903625488	-524.1550903320312	-1190.475952148438	38.54231643676758	-408.5556030273438	-1383.042236328125	30.52290153503418	-472.7520751953125	nan	nan	nan	
2	0.01	-1322.720703125	1128.305541992188	-501.1095886230469	-1319.245361328125	1128.441040039062	-635.4296264648438	-1328.180541992188	1159.991821289062	-571.3054809570312	-1110.371826171875	1361.825317382812	-572.5150756835938	-1366.8798828125	1310.444946289062	-577.4909057617188	-1332.219970703125	1602.809692382812	-596.8926391601562	-1146.403198242188	1497.24609375	-580.803466796875	-1387.634765625	1420.46435546875	-506.3730163574219	-1336.457153320312	1580.917114257812	-698.5947875976562	-1248.425659179688	1566.428344726562	-763.9351806640625	-1266.285522460938	1433.487426757812	-833.3479614257812	-1244.721435546875	1212.08056640625	-845.9479370117188	-1314.175659179688	1200.606689453125	-794.122802734375	-1141.688232421875	960.3291015625	-780.5429077148438	-1218.661743164062	930.6127319335938	-814.464111328125	-1223.8837890625	1096.193481445312	-843.036865234375	-1124.114990234375	768.6363525390625	-749.6870727539062	-1186.358520507812	856.9835205078125	-807.8861083984375	-1122.896362304688	872.654052734375	-784.6991577148438	-1283.636352539062	1589.882568359375	-414.5321655273438	-1304.287841796875	1517.961303710938	-349.5533752441406	-1315.597412109375	1222.351684570312	-325.0299377441406	-1316.089477539062	1219.953735351562	-422.1048278808594	-1166.520874023438	982.90185546875	-324.9146728515625	-1242.8916015625	964.5895385742188	-299.4774169921875	-1292.114013671875	1150.05419921875	-306.94970703125	-1136.235229492188	788.9251098632812	-337.0047302246094	-1135.950317382812	875.4412841796875	-315.879638671875	-1204.91796875	865.7979125976562	-291.5662841796875	-1297.125732421875	1773.903686523438	-514.22607421875	-1138.513916015625	1843.275268554688	-649.979248046875	-1136.021606445312	1847.58251953125	-520.389404296875	-1307.497924804688	1773.158203125	-648.9627075195312	-1226.867919921875	1036.930786132812	-739.454345703125	-1200.167358398438	1033.5869140625	-379.7866516113281	-1116.824096679688	1105.121215820312	-431.68115234375	-1120.426879882812	1100.159545898438	-697.5927124023438	-1214.078369140625	535.2997436523438	-708.560546875	-1231.63525390625	681.6734008789062	-736.55908203125	-1328.005859375	34.95901489257812	-698.2102661132812	-1316.971801757812	291.0229187011719	-733.1661376953125	-1095.250610351562	36.20712280273438	-642.8316650390625	-1177.288940429688	40.87399291992188	-609.777587890625	-1203.015258789062	32.45284271240234	-726.10546875	-1395.99560546875	36.2609748840332	-635.0903930664062	-1224.657592773438	539.2549438476562	-409.8228149414062	-1189.740234375	817.8786010742188	-384.1933288574219	-1324.428466796875	29.20517158508301	-425.6427001953125	-1253.21630859375	408.0748901367188	-398.8083801269531	-1093.16552734375	40.70269012451172	-483.0625	-1155.429443359375	30.17919158935547	-524.1578369140625	-1190.463012695312	38.54933547973633	-408.5595397949219	-1383.03955078125	30.51932716369629	-472.7543640136719	nan	nan	nan	
3	0.02	-1322.733642578125	1128.307861328125	-501.1727905273438	-1319.2841796875	1128.434936523438	-635.5084838867188	-1328.283569335938	1160.001708984375	-571.3994750976562	-1110.336059570312	1361.839477539062	-572.6531372070312	-1366.888793945312	1310.461303710938	-577.5860595703125	-1332.202026367188	1602.797119140625	-597.0198974609375	-1146.427978515625	1497.241455078125	-580.9605712890625	-1387.6083984375	1420.492431640625	-506.4375	-1336.483642578125	1580.87939453125	-698.7437744140625	-1248.500366210938	1566.376953125	-764.1210327148438	-1266.321044921875	1433.37451171875	-833.43603515625	-1244.859985351562	1211.941772460938	-845.8812255859375	-1314.273193359375	1200.548583984375	-794.009033203125	-1141.99462890625	960.1222534179688	-780.4574584960938	-1219.010864257812	930.465576171875	-814.2908325195312	-1224.107177734375	1096.061645507812	-842.9171752929688	-1124.537353515625	768.4343872070312	-749.560302734375	-1186.78564453125	856.8126220703125	-807.7152709960938	-1123.239990234375	872.4488525390625	-784.5992431640625	-1283.555541992188	1589.941772460938	-414.697021484375	-1304.243041992188	1518.033081054688	-349.6933288574219	-1315.501586914062	1222.410278320312	-325.1463623046875	-1316.104370117188	1220.021240234375	-422.1871032714844	-1166.379638671875	983.0028686523438	-325.1017761230469	-1242.822021484375	964.654541015625	-299.6457214355469	-1292.001708984375	1150.103393554688	-307.0493469238281	-1136.176513671875	788.9476928710938	-337.3288879394531	-1135.796875	875.5225219726562	-316.1664733886719	-1204.793212890625	865.8765869140625	-291.7760009765625	-1297.120239257812	1773.877807617188	-514.2872924804688	-1138.568237304688	1843.323974609375	-650.0850830078125	-1136.025756835938	1847.512451171875	-520.439697265625	-1307.575561523438	1773.243896484375	-649.1045532226562	-1226.96923828125	1036.920166015625	-739.5203247070312	-1200.169311523438	1033.6064453125	-379.8525390625	-1116.877563476562	1105.141845703125	-431.773193359375	-1120.455322265625	1100.136596679688	-697.6810913085938	-1214.110473632812	535.2942504882812	-708.5978393554688	-1231.675903320312	681.6687622070312	-736.6187744140625	-1328.005981445312	34.95430374145508	-698.2109375	-1316.980834960938	291.01416015625	-733.1739501953125	-1095.2509765625	36.22172546386719	-642.8087768554688	-1177.283569335938	40.87555694580078	-609.778564453125	-1203.013916015625	32.4532470703125	-726.1046142578125	-1396.000732421875	36.26651382446289	-635.0929565429688	-1224.66259765625	539.2650146484375	-409.871337890625	-1189.762817382812	817.8999633789062	-384.2529602050781	-1324.433837890625	29.20781707763672	-425.6430053710938	-1253.202270507812	408.076171875	-398.855712890625	-1093.16552734375	40.70540618896484	-483.0613098144531	-1155.431518554688	30.18073463439941	-524.1605224609375	-1190.451293945312	38.55632781982422	-408.564453125	-1383.035522460938	30.51570892333984	-472.7577209472656	nan	nan	nan	
4	0.03	-1322.748413085938	1128.30908203125	-501.2476501464844	-1319.330200195312	1128.430541992188	-635.6036987304688	-1328.398559570312	1160.008911132812	-571.5086059570312	-1110.291748046875	1361.855712890625	-572.8094482421875	-1366.898803710938	1310.476684570312	-577.6954956054688	-1332.1845703125	1602.778442382812	-597.16650390625	-1146.448974609375	1497.237915039062	-581.1473388671875	-1387.577270507812	1420.522583007812	-506.5173950195312	-1336.509521484375	1580.837524414062	-698.9141845703125	-1248.574340820312	1566.320434570312	-764.3291015625	-1266.3564453125	1433.248901367188	-833.5402221679688	-1245.00732421875	1211.787231445312	-845.8154907226562	-1314.385009765625	1200.485595703125	-793.8998413085938	-1142.337036132812	959.8886108398438	-780.3451538085938	-1219.418090820312	930.2988891601562	-814.1064453125	-1224.35693359375	1095.906616210938	-842.7957153320312	-1125.067626953125	768.19970703125	-749.4039916992188	-1187.275146484375	856.6117553710938	-807.5289916992188	-1123.659057617188	872.1958618164062	-784.4821166992188	-1283.46923828125	1590.006469726562	-414.8832092285156	-1304.188232421875	1518.109497070312	-349.850830078125	-1315.380004882812	1222.473022460938	-325.2846374511719	-1316.102905273438	1220.092041015625	-422.2870483398438	-1166.218994140625	983.098876953125	-325.3435974121094	-1242.715209960938	964.7222290039062	-299.8478698730469	-1291.85205078125	1150.154296875	-307.1758117675781	-1136.105834960938	788.9663696289062	-337.7043762207031	-1135.603637695312	875.6055297851562	-316.5123596191406	-1204.64453125	865.9600219726562	-292.0293884277344	-1297.121337890625	1773.846557617188	-514.3694458007812	-1138.624267578125	1843.377319335938	-650.2044067382812	-1136.0341796875	1847.43505859375	-520.497314453125	-1307.663696289062	1773.345581054688	-649.2816772460938	-1227.081420898438	1036.906616210938	-739.5953979492188	-1200.171508789062	1033.628662109375	-379.9327087402344	-1116.937622070312	1105.163696289062	-431.8805236816406	-1120.48828125	1100.111206054688	-697.7853393554688	-1214.144287109375	535.2868041992188	-708.6409301757812	-1231.72314453125	681.6631469726562	-736.690673828125	-1328.007080078125	34.9482421875	-698.2130737304688	-1316.990112304688	291.0031433105469	-733.1856079101562	-1095.251586914062	36.23573684692383	-642.787353515625	-1177.277954101562	40.87746810913086	-609.780029296875	-1203.013305664062	32.45292663574219	-726.1039428710938	-1396.005249023438	36.27141189575195	-635.09521484375	-1224.66552734375	539.2744140625	-409.9295349121094	-1189.790405273438	817.9207763671875	-384.3272094726562	-1324.44189453125	29.20998573303223	-425.6422119140625	-1253.182861328125	408.08056640625	-398.9126281738281	-1093.166137695312	40.70703506469727	-483.0610961914062	-1155.433227539062	30.18160247802734	-524.1631469726562	-1190.4423828125	38.5623893737793	-408.5702514648438	-1383.029174804688	30.51140403747559	-472.7619934082031	nan	nan	nan	
